<svg viewBox="0 0 340 340" xmlns="http://www.w3.org/2000/svg"><path d="m78.747 32.177h182.506v275.647h-182.506z" fill="#d0cde2"/><path d="m92.456 45.173h155.088v249.655h-155.088z" fill="#fff"/><path d="m78.747 32.177-24.087-22.177h230.68l-24.087 22.177z" fill="#ffe6bd"/><path d="m54.66 10 24.087 22.177v275.646l-24.087 22.177z" fill="#ffc45f"/><path d="m197.258 307.823 31.542-95.023s21.486 9.41 20.731 41.832v46.017z" fill="#d0cde2"/><path d="m261.253 32.177 24.087-22.177v320l-24.087-22.177z" fill="#ffc45f"/><path d="m285.34 330-24.087-22.177h-182.506l-24.087 22.177z" fill="#ffa82c"/><path d="m222.858 259.841-8.919 54.113-12.59-17.728-21.268 16.044 14.735-63.192z" fill="#fc707e"/><path d="m211.971 260.171 28.497 56.23 7.639-20.175 20.858-1.284-32.251-49.946z" fill="#fc707e"/><path d="m242.051 236.867a28.492 28.492 0 0 1 -28.491 28.492c-37.717-1.3-37.707-55.686 0-56.984a28.491 28.491 0 0 1 28.491 28.492z" fill="#fc707e"/><path d="m225.77 236.867a12.211 12.211 0 0 1 -12.21 12.211c-16.164-.559-16.16-23.866 0-24.422a12.211 12.211 0 0 1 12.21 12.211z" fill="#fff"/><g fill="#2f313f"><path d="m289.308 9.573a4.006 4.006 0 0 0 -3.777-3.558c-.175-.043-230.678 0-230.871-.015a4.215 4.215 0 0 0 -2.247.692 4.088 4.088 0 0 0 -1.753 3.308v320a4.052 4.052 0 0 0 4 4h230.68a4 4 0 0 0 4-4c.066-.3-.01-320.128-.032-320.427zm-14.218 4.427-15.4 14.177h-179.383l-15.397-14.177zm-216.43 5.12 16.087 14.811v272.138l-16.087 14.811zm222.68 306.88h-216.43l15.4-14.177h84.534a4 4 0 0 0 0-8h-82.097v-267.646h174.506v218.033a4 4 0 1 0 8 0v-220.279l16.087-14.811z"/><path d="m246.051 236.867a32.528 32.528 0 0 0 -32.491-32.492c-27.38-.236-42.576 32.825-24.872 53.369l-12.5 53.617a4 4 0 0 0 6.3 4.1l17.984-13.561 10.206 14.373a4.026 4.026 0 0 0 7.208-1.667l2.487-15.09c.767-5.2-6.95-6.482-7.894-1.3l-.906 5.5-6.963-9.805a4.024 4.024 0 0 0 -5.67-.877l-12.458 9.4 9-38.581a32.293 32.293 0 0 0 16.645 5.473l24.773 48.883a4 4 0 0 0 7.308-.392l6.725-17.757 18.277-1.125a4 4 0 0 0 3.115-6.163l-28.493-44.127a32.3 32.3 0 0 0 2.219-11.778zm-56.983 0a24.52 24.52 0 0 1 24.492-24.492c32.414 1.151 32.407 47.838 0 48.983a24.519 24.519 0 0 1 -24.492-24.491zm72.828 54.5-14.034.863a4 4 0 0 0 -3.5 2.576l-4.43 11.7-19.231-37.949a32.549 32.549 0 0 0 18.7-12.025z"/><path d="m213.56 220.656a16.23 16.23 0 0 0 -16.211 16.211c.761 21.455 31.664 21.449 32.422 0a16.23 16.23 0 0 0 -16.211-16.211zm0 24.421c-10.852-.345-10.848-16.077 0-16.421 10.85.344 10.849 16.078 0 16.421z"/><path d="m135.2 89.912h69.6a4 4 0 0 0 0-8h-69.6c-5.256.126-5.295 7.863 0 8z"/><path d="m115.2 146.24h109.6a4 4 0 1 0 0-8h-109.6c-5.242.121-5.307 7.86 0 8z"/><path d="m155.2 110.076c-5.267.131-5.282 7.865 0 8h29.6c5.267-.13 5.282-7.865 0-8z"/><path d="m198.8 170.4a4 4 0 0 0 -4-4h-49.6a4 4 0 1 0 0 8h49.6a4 4 0 0 0 4-4z"/><path d="m147.088 219.1h-42.954c-5.263.129-5.286 7.864 0 8h42.954c5.263-.126 5.286-7.862 0-8z"/><path d="m147.088 241h-21.477c-5.269.132-5.28 7.866 0 8h21.477c5.27-.136 5.28-7.871 0-8z"/></g></svg>